<svg width="126" height="22" viewBox="0 0 126 22" fill="none" xmlns="http://www.w3.org/2000/svg">
<path d="M51.1862 1V17H48.2644L41.3034 6.92969H41.1862V17H37.8034V1H40.7722L47.6784 11.0625H47.8191V1H51.1862ZM59.3405 17.2344C58.127 17.2344 57.0775 16.9766 56.1921 16.4609C55.3119 15.9401 54.6322 15.2161 54.153 14.2891C53.6739 13.3568 53.4343 12.276 53.4343 11.0469C53.4343 9.80729 53.6739 8.72396 54.153 7.79687C54.6322 6.86458 55.3119 6.14062 56.1921 5.625C57.0775 5.10417 58.127 4.84375 59.3405 4.84375C60.5541 4.84375 61.601 5.10417 62.4812 5.625C63.3666 6.14062 64.0489 6.86458 64.528 7.79687C65.0072 8.72396 65.2468 9.80729 65.2468 11.0469C65.2468 12.276 65.0072 13.3568 64.528 14.2891C64.0489 15.2161 63.3666 15.9401 62.4812 16.4609C61.601 16.9766 60.5541 17.2344 59.3405 17.2344ZM59.3562 14.6562C59.9083 14.6562 60.3692 14.5 60.739 14.1875C61.1088 13.8698 61.3874 13.4375 61.5749 12.8906C61.7676 12.3437 61.864 11.7214 61.864 11.0234C61.864 10.3255 61.7676 9.70313 61.5749 9.15625C61.3874 8.60937 61.1088 8.17708 60.739 7.85937C60.3692 7.54167 59.9083 7.38281 59.3562 7.38281C58.7989 7.38281 58.3301 7.54167 57.9499 7.85937C57.5749 8.17708 57.2911 8.60937 57.0984 9.15625C56.9109 9.70313 56.8171 10.3255 56.8171 11.0234C56.8171 11.7214 56.9109 12.3437 57.0984 12.8906C57.2911 13.4375 57.5749 13.8698 57.9499 14.1875C58.3301 14.5 58.7989 14.6562 59.3562 14.6562ZM73.7937 5V7.5H66.5671V5H73.7937ZM68.2077 2.125H71.5359V13.3125C71.5359 13.6198 71.5827 13.8594 71.6765 14.0312C71.7702 14.1979 71.9004 14.3151 72.0671 14.3828C72.239 14.4505 72.4369 14.4844 72.6609 14.4844C72.8171 14.4844 72.9734 14.4714 73.1296 14.4453C73.2859 14.4141 73.4056 14.3906 73.489 14.375L74.0124 16.8516C73.8458 16.9036 73.6114 16.9635 73.3093 17.0313C73.0072 17.1042 72.64 17.1484 72.2077 17.1641C71.4056 17.1953 70.7025 17.0885 70.0984 16.8437C69.4994 16.599 69.0333 16.2187 68.6999 15.7031C68.3666 15.1875 68.2025 14.5365 68.2077 13.75V2.125ZM81.4304 17.2344C80.196 17.2344 79.1335 16.9844 78.2429 16.4844C77.3575 15.9792 76.6752 15.2656 76.196 14.3437C75.7168 13.4167 75.4773 12.3203 75.4773 11.0547C75.4773 9.82031 75.7168 8.73698 76.196 7.80469C76.6752 6.8724 77.3497 6.14583 78.2195 5.625C79.0945 5.10417 80.1205 4.84375 81.2976 4.84375C82.0892 4.84375 82.8262 4.97135 83.5085 5.22656C84.196 5.47656 84.795 5.85417 85.3054 6.35937C85.821 6.86458 86.2221 7.5 86.5085 8.26562C86.795 9.02604 86.9382 9.91667 86.9382 10.9375V11.8516H76.8054V9.78906H83.8054C83.8054 9.3099 83.7012 8.88542 83.4929 8.51563C83.2846 8.14583 82.9955 7.85677 82.6257 7.64844C82.2611 7.4349 81.8366 7.32812 81.3523 7.32812C80.8471 7.32812 80.3991 7.44531 80.0085 7.67969C79.6231 7.90885 79.321 8.21875 79.1023 8.60937C78.8835 8.99479 78.7715 9.42448 78.7663 9.89844V11.8594C78.7663 12.4531 78.8757 12.9661 79.0945 13.3984C79.3184 13.8307 79.6335 14.1641 80.0398 14.3984C80.446 14.6328 80.9278 14.75 81.4851 14.75C81.8549 14.75 82.1934 14.6979 82.5007 14.5938C82.808 14.4896 83.071 14.3333 83.2898 14.125C83.5085 13.9167 83.6752 13.6615 83.7898 13.3594L86.8679 13.5625C86.7116 14.3021 86.3913 14.9479 85.907 15.5C85.4278 16.0469 84.808 16.474 84.0476 16.7813C83.2924 17.0833 82.42 17.2344 81.4304 17.2344ZM92.8782 1V17H89.5501V1H92.8782ZM95.5442 17V5H98.8723V17H95.5442ZM97.2161 3.45312C96.7213 3.45312 96.2968 3.28906 95.9427 2.96094C95.5937 2.6276 95.4192 2.22917 95.4192 1.76562C95.4192 1.30729 95.5937 0.914062 95.9427 0.585938C96.2968 0.252604 96.7213 0.0859367 97.2161 0.0859367C97.7109 0.0859367 98.1328 0.252604 98.4817 0.585938C98.8359 0.914062 99.013 1.30729 99.013 1.76562C99.013 2.22917 98.8359 2.6276 98.4817 2.96094C98.1328 3.28906 97.7109 3.45312 97.2161 3.45312ZM107.991 5V7.5H100.585V5H107.991ZM102.281 17V4.13281C102.281 3.26302 102.45 2.54167 102.788 1.96875C103.132 1.39583 103.601 0.966145 104.195 0.679686C104.788 0.393228 105.463 0.249999 106.218 0.249999C106.728 0.249999 107.195 0.289062 107.616 0.367187C108.044 0.445312 108.361 0.515625 108.57 0.578125L107.976 3.07812C107.846 3.03646 107.684 2.9974 107.491 2.96094C107.304 2.92448 107.111 2.90625 106.913 2.90625C106.424 2.90625 106.083 3.02083 105.89 3.25C105.697 3.47396 105.601 3.78906 105.601 4.19531V17H102.281ZM112.079 21.5C111.658 21.5 111.262 21.4661 110.892 21.3984C110.527 21.3359 110.225 21.2552 109.986 21.1562L110.736 18.6719C111.126 18.7917 111.478 18.8568 111.79 18.8672C112.108 18.8776 112.381 18.8047 112.611 18.6484C112.845 18.4922 113.035 18.2266 113.181 17.8516L113.376 17.3438L109.072 5H112.572L115.056 13.8125H115.181L117.689 5H121.212L116.548 18.2969C116.324 18.9427 116.019 19.5052 115.634 19.9844C115.254 20.4688 114.772 20.8411 114.189 21.1016C113.605 21.3672 112.902 21.5 112.079 21.5Z" fill="#DEDEDE"/>
<path d="M0 11.0857L7.69376 19L9.63441 16.9896L1.95441 9.08942M30.0456 0L15.4839 14.9933L9.75828 9.08942L7.79011 11.0857L15.4839 19L32 2.01043M24.2099 2.01043L22.2692 0L13.5295 8.99031L15.4839 10.9866L24.2099 2.01043Z" fill="#E7AB79"/>
</svg>
